<?xml version="1.0" standalone="no"?>
<!DOCTYPE svg PUBLIC "-//W3C//DTD SVG 20010904//EN"
 "http://www.w3.org/TR/2001/REC-SVG-20010904/DTD/svg10.dtd">
<svg version="1.0" xmlns="http://www.w3.org/2000/svg"
 width="135.000000pt" height="135.000000pt" viewBox="0 0 135.000000 135.000000"
 preserveAspectRatio="xMidYMid meet">
<metadata>
Created by potrace 1.14, written by Peter Selinger 2001-2017
</metadata>
<g transform="translate(0.000000,135.000000) scale(0.100000,-0.100000)"
fill="#000000" stroke="none">
<path d="M365 1005 c-16 -8 -37 -20 -45 -27 -9 -7 -78 -112 -155 -233 -127
-199 -140 -224 -140 -266 0 -90 79 -150 179 -135 57 9 94 43 154 143 46 76 66
98 80 89 4 -3 35 -48 68 -101 47 -76 67 -99 100 -115 79 -39 151 -19 209 57
47 61 261 404 270 431 9 32 -4 88 -29 116 -36 41 -84 59 -137 53 -69 -8 -93
-29 -165 -139 -35 -54 -68 -98 -74 -98 -5 0 -32 35 -59 78 -27 42 -60 90 -72
106 -41 52 -122 70 -184 41z"/>
<path d="M1120 826 c-5 -15 -20 -42 -33 -59 -12 -18 -27 -41 -34 -52 -7 -11
-31 -50 -53 -87 l-41 -66 42 -69 c76 -123 116 -153 196 -148 85 5 151 77 140
154 -2 21 -32 79 -73 143 -38 59 -83 131 -101 160 l-32 52 -11 -28z"/>
</g>
</svg>
