<svg width="343" height="306" viewBox="0 0 343 306" fill="none" xmlns="http://www.w3.org/2000/svg">
<g clip-path="url(#clip0_96_65)">
<path d="M39.3436 306L39.0451 305.889C34.0493 304.002 29.5239 301.047 25.7832 297.231C22.0425 293.415 19.1763 288.829 17.3839 283.791C16.401 280.958 15.7782 278.011 15.5302 275.022L15.5058 274.737L15.7871 274.787C19.1451 275.391 22.6702 275.724 24.2408 275.855L15.4292 270.015L15.4451 269.711C15.5122 268.318 15.9944 266.976 16.8295 265.86C17.6646 264.743 18.8145 263.902 20.1309 263.446C21.4598 262.955 22.9052 262.873 24.281 263.211C25.6567 263.55 26.8997 264.294 27.8498 265.346C28.7259 266.298 29.652 267.257 30.5475 268.184C33.6251 271.37 36.8076 274.664 38.8199 278.553C40.3142 281.512 41.1298 284.768 41.2071 288.083C41.2845 291.398 40.6216 294.688 39.2669 297.713L39.3436 306Z" fill="#F2F2F2"/>
<path d="M217.634 300.341L217.631 300.309C217.241 291.647 215.655 283.081 212.916 274.855L212.913 274.842C212.753 273.997 212.8 273.126 213.048 272.303C213.419 271.162 214.185 270.191 215.209 269.568C216.233 268.945 217.446 268.71 218.628 268.907C221.151 269.382 223.761 268.935 225.984 267.649C226.68 267.244 227.46 267.006 228.264 266.953C229.067 266.899 229.872 267.032 230.616 267.342C231.317 267.628 231.941 268.074 232.439 268.645C232.937 269.217 233.294 269.897 233.483 270.631C233.512 270.748 233.539 270.866 233.561 270.986C233.641 279.689 235.237 288.311 238.277 296.465L238.279 296.475C238.436 297.305 238.394 298.161 238.157 298.971C237.92 299.782 237.494 300.525 236.915 301.138C236.402 301.66 235.78 302.061 235.094 302.314C234.408 302.566 233.675 302.663 232.947 302.599C230.301 302.418 227.58 302.956 224.628 304.243C223.597 304.702 222.437 304.784 221.352 304.473C220.411 304.197 219.565 303.664 218.909 302.935C218.252 302.205 217.811 301.307 217.634 300.341Z" fill="#1858CD"/>
<path d="M133.054 181.35V295.101H212.615V181.35C212.616 180.532 212.356 179.735 211.872 179.077C211.387 178.418 210.705 177.932 209.924 177.69C209.557 177.569 209.171 177.509 208.784 177.513H136.896C136.392 177.512 135.893 177.611 135.427 177.803C134.961 177.995 134.538 178.278 134.181 178.634C133.824 178.99 133.541 179.414 133.347 179.88C133.154 180.346 133.054 180.846 133.054 181.35ZM164.103 220.435C164.124 218.193 165.028 216.049 166.618 214.471C168.209 212.892 170.357 212.007 172.596 212.007C174.835 212.007 176.984 212.892 178.574 214.471C180.165 216.049 181.069 218.193 181.09 220.435V233.634C181.079 235.883 180.179 238.036 178.588 239.623C176.996 241.21 174.842 242.1 172.596 242.1C170.351 242.1 168.196 241.21 166.605 239.623C165.013 238.036 164.114 235.883 164.103 233.634V220.435Z" fill="#F2F2F2"/>
<path d="M132.81 291.463V302.432C132.812 303 133.037 303.545 133.437 303.947C133.837 304.35 134.38 304.579 134.947 304.584H210.722C211.29 304.581 211.833 304.353 212.234 303.949C212.634 303.546 212.859 303.001 212.859 302.432V291.463H132.81Z" fill="#E6E6E6"/>
<path d="M7.89215 9.97095V217.663C7.89424 220.309 8.9449 222.847 10.8134 224.719C12.682 226.59 15.2156 227.643 17.8581 227.645H325.142C327.784 227.643 330.318 226.59 332.187 224.719C334.055 222.847 335.106 220.309 335.108 217.663V9.97095C335.102 7.32651 334.049 4.79234 332.181 2.92347C330.313 1.05459 327.782 0.00335677 325.142 0H17.8581C15.2179 0.00336882 12.6867 1.05461 10.8187 2.92348C8.95079 4.79235 7.89844 7.32651 7.89215 9.97095Z" fill="#E6E6E6"/>
<path d="M322.578 7.20923H20.4216C19.008 7.21231 17.6534 7.77689 16.6548 8.77909C15.6563 9.7813 15.0955 11.1393 15.0954 12.5551V215.101C15.0978 216.515 15.6597 217.87 16.658 218.87C17.6564 219.87 19.0097 220.433 20.4216 220.435H322.578C323.99 220.433 325.344 219.87 326.342 218.87C327.34 217.87 327.902 216.515 327.905 215.101V12.5551C327.905 11.1393 327.344 9.78129 326.345 8.77909C325.347 7.77688 323.992 7.21231 322.578 7.20923ZM246.358 151.109C245.915 151.985 245.238 152.721 244.402 153.234C243.566 153.748 242.604 154.018 241.624 154.016L241.592 154.014C238.695 153.609 235.788 153.343 232.87 153.214C233.323 153.539 233.722 153.934 234.051 154.384C234.469 154.984 234.75 155.67 234.873 156.391C234.995 157.113 234.957 157.853 234.761 158.558C234.101 161.131 234.132 163.909 234.857 167.051C235.12 168.15 234.989 169.307 234.486 170.319C234.043 171.195 233.365 171.931 232.529 172.444C231.693 172.958 230.732 173.228 229.751 173.226L229.719 173.224C222.802 172.258 215.798 172.072 208.839 172.666C208.812 172.842 208.777 173.018 208.732 173.194C208.072 175.767 208.103 178.545 208.828 181.687C209.091 182.786 208.96 183.943 208.457 184.955C208.014 185.831 207.337 186.567 206.501 187.08C205.665 187.594 204.703 187.864 203.722 187.862L203.691 187.86C196.586 186.869 189.392 186.699 182.249 187.354C182.195 189.141 182.38 190.926 182.799 192.664C183.063 193.763 182.931 194.92 182.428 195.932C181.985 196.808 181.308 197.544 180.472 198.057C179.636 198.571 178.674 198.841 177.693 198.839L177.662 198.837C169.088 197.64 160.389 197.64 151.815 198.837H151.801C150.943 198.84 150.096 198.635 149.334 198.24C148.281 197.668 147.468 196.736 147.043 195.614C146.618 194.492 146.609 193.254 147.018 192.126C147.277 191.392 147.469 190.636 147.593 189.868C139.735 188.961 131.794 189.054 123.96 190.147H123.946C123.087 190.15 122.241 189.945 121.478 189.55C120.426 188.978 119.613 188.046 119.188 186.924C118.763 185.802 118.754 184.564 119.162 183.436C120.089 181.038 120.127 178.387 119.269 175.963C118.865 174.826 118.865 173.585 119.269 172.448C113.363 172.147 107.441 172.406 101.584 173.224H101.57C100.712 173.227 99.8654 173.022 99.1029 172.627C98.05 172.055 97.2372 171.122 96.8122 170.001C96.3872 168.879 96.3781 167.641 96.7867 166.513C97.7131 164.115 97.7511 161.463 96.8937 159.04C96.6235 158.28 96.532 157.468 96.6263 156.667C96.7206 155.866 96.9981 155.098 97.4373 154.422C97.8461 153.784 98.3983 153.25 99.0498 152.864C99.7012 152.478 100.434 152.25 101.189 152.199C101.309 152.191 101.43 152.186 101.552 152.186C104.553 152.712 107.583 153.055 110.626 153.213C109.683 152.592 108.976 151.672 108.619 150.6C108.263 149.527 108.277 148.366 108.659 147.303C109.586 144.905 109.624 142.254 108.766 139.83C108.496 139.07 108.405 138.258 108.499 137.457C108.593 136.656 108.871 135.888 109.31 135.212C109.349 135.153 109.393 135.101 109.434 135.044C107.269 135.193 105.109 135.418 102.954 135.718H102.94C102.082 135.722 101.235 135.517 100.473 135.122C99.42 134.549 98.6072 133.617 98.1821 132.495C97.7571 131.373 97.7481 130.136 98.1566 129.008C99.083 126.61 99.121 123.958 98.2636 121.535C97.9934 120.775 97.9019 119.963 97.9962 119.162C98.0905 118.361 98.368 117.593 98.8072 116.917C99.216 116.279 99.7682 115.745 100.42 115.359C101.071 114.973 101.804 114.745 102.559 114.694C102.679 114.686 102.8 114.681 102.922 114.681C106.531 115.314 110.181 115.682 113.842 115.782C113.382 115.118 113.086 114.353 112.979 113.551C112.871 112.749 112.956 111.933 113.226 111.17C114.152 108.772 114.19 106.121 113.333 103.697C113.063 102.937 112.971 102.125 113.065 101.324C113.16 100.523 113.437 99.755 113.877 99.0791C114.285 98.441 114.838 97.9076 115.489 97.5215C116.14 97.1355 116.873 96.9075 117.628 96.8558C117.749 96.8478 117.869 96.8435 117.992 96.8435C121.045 97.3784 124.129 97.7242 127.225 97.8789C126.896 97.2549 126.7 96.5695 126.648 95.8657C126.596 95.162 126.691 94.4552 126.925 93.7897C127.852 91.3915 127.89 88.7403 127.032 86.3165C126.762 85.5567 126.671 84.7448 126.765 83.9439C126.859 83.143 127.137 82.3746 127.576 81.6987C127.985 81.0606 128.537 80.5272 129.188 80.1411C129.84 79.7551 130.572 79.5271 131.328 79.4754C131.448 79.4674 131.569 79.4632 131.691 79.4632C135.284 80.0931 138.918 80.4606 142.564 80.5627C142.068 79.3879 142.028 78.0698 142.451 76.8667C143.378 74.4685 143.416 71.8173 142.558 69.3935C142.288 68.6337 142.196 67.8218 142.291 67.0209C142.385 66.22 142.663 65.4516 143.102 64.7757C143.511 64.1376 144.063 63.6042 144.714 63.2181C145.366 62.8321 146.098 62.6041 146.853 62.5524C146.974 62.5444 147.095 62.5402 147.217 62.5402C155.775 64.0488 164.53 64.05 173.088 62.5435H173.099C173.759 62.6798 174.44 62.6798 175.101 62.5435H175.111C183.67 64.05 192.425 64.0488 200.982 62.5402C201.105 62.5402 201.225 62.5444 201.346 62.5524C202.101 62.6041 202.834 62.8321 203.485 63.2181C204.137 63.6042 204.689 64.1376 205.098 64.7757C205.537 65.4516 205.814 66.22 205.909 67.0209C206.003 67.8218 205.911 68.6337 205.641 69.3935C204.784 71.8173 204.822 74.4685 205.748 76.8667C206.172 78.0698 206.131 79.3879 205.635 80.5627C209.281 80.4606 212.915 80.0931 216.508 79.4632C216.63 79.4632 216.751 79.4674 216.872 79.4754C217.627 79.5271 218.359 79.7551 219.011 80.1411C219.662 80.5272 220.215 81.0606 220.623 81.6987C221.063 82.3746 221.34 83.143 221.434 83.9439C221.529 84.7448 221.437 85.5567 221.167 86.3165C220.31 88.7403 220.348 91.3915 221.274 93.7897C221.509 94.4552 221.603 95.162 221.551 95.8657C221.5 96.5695 221.303 97.2549 220.974 97.8789C224.07 97.7242 227.154 97.3784 230.208 96.8435C230.33 96.8435 230.451 96.8478 230.571 96.8558C231.326 96.9075 232.059 97.1355 232.71 97.5215C233.362 97.9076 233.914 98.441 234.323 99.0791C234.762 99.755 235.04 100.523 235.134 101.324C235.228 102.125 235.137 102.937 234.866 103.697C234.009 106.121 234.047 108.772 234.973 111.17C235.244 111.935 235.328 112.753 235.22 113.557C235.112 114.36 234.813 115.127 234.35 115.792C234.758 116.1 235.119 116.467 235.421 116.879C235.839 117.479 236.12 118.165 236.243 118.886C236.365 119.608 236.327 120.348 236.131 121.053C235.471 123.626 235.502 126.404 236.227 129.546C236.49 130.645 236.358 131.802 235.855 132.814C235.671 133.174 235.447 133.512 235.188 133.822C237.325 133.634 239.457 133.353 241.584 132.98H241.595C242.439 132.977 243.271 133.174 244.023 133.556C244.775 133.937 245.427 134.492 245.924 135.174C246.342 135.774 246.623 136.46 246.745 137.182C246.868 137.903 246.83 138.643 246.633 139.348C245.973 141.921 246.005 144.699 246.73 147.841C246.993 148.94 246.861 150.097 246.358 151.109Z" fill="white"/>
<path d="M312.778 35.1108H30.0511C29.7572 35.1043 29.4775 34.9828 29.272 34.7723C29.0664 34.5618 28.9513 34.2791 28.9513 33.9847C28.9513 33.6902 29.0664 33.4075 29.272 33.197C29.4775 32.9865 29.7572 32.865 30.0511 32.8585H312.778C313.072 32.865 313.352 32.9865 313.557 33.197C313.763 33.4075 313.878 33.6902 313.878 33.9847C313.878 34.2791 313.763 34.5618 313.557 34.7723C313.352 34.9828 313.072 35.1043 312.778 35.1108Z" fill="#E6E6E6"/>
<path d="M49.2967 27.1087C52.9357 27.1087 55.8858 24.0881 55.8858 20.362C55.8858 16.6359 52.9357 13.6152 49.2967 13.6152C45.6576 13.6152 42.7076 16.6359 42.7076 20.362C42.7076 24.0881 45.6576 27.1087 49.2967 27.1087Z" fill="#3F3D56"/>
<path d="M72.0589 27.1087C75.698 27.1087 78.648 24.0881 78.648 20.362C78.648 16.6359 75.698 13.6152 72.0589 13.6152C68.4199 13.6152 65.4699 16.6359 65.4699 20.362C65.4699 24.0881 68.4199 27.1087 72.0589 27.1087Z" fill="#3F3D56"/>
<path d="M94.8212 27.1087C98.4603 27.1087 101.41 24.0881 101.41 20.362C101.41 16.6359 98.4603 13.6152 94.8212 13.6152C91.1822 13.6152 88.2321 16.6359 88.2321 20.362C88.2321 24.0881 91.1822 27.1087 94.8212 27.1087Z" fill="#3F3D56"/>
<path d="M299.071 15.2836H282.904C282.585 15.2909 282.281 15.4232 282.057 15.6523C281.834 15.8813 281.708 16.1889 281.708 16.5092C281.708 16.8294 281.834 17.137 282.057 17.366C282.281 17.5951 282.585 17.7274 282.904 17.7347H299.071C299.393 17.7303 299.7 17.5993 299.926 17.3699C300.152 17.1405 300.278 16.8313 300.278 16.5092C300.278 16.187 300.152 15.8778 299.926 15.6484C299.7 15.419 299.393 15.288 299.071 15.2836H299.071Z" fill="#3F3D56"/>
<path d="M299.071 19.8864H282.904C282.585 19.8936 282.28 20.0259 282.057 20.255C281.833 20.484 281.708 20.7916 281.708 21.1119C281.708 21.4322 281.833 21.7398 282.057 21.9688C282.28 22.1979 282.585 22.3302 282.904 22.3374H299.071C299.393 22.3331 299.7 22.2021 299.926 21.9727C300.152 21.7434 300.279 21.4341 300.279 21.1119C300.279 20.7897 300.152 20.4804 299.926 20.251C299.7 20.0217 299.393 19.8907 299.071 19.8864H299.071Z" fill="#3F3D56"/>
<path d="M299.071 24.4891H282.904C282.585 24.4965 282.281 24.6288 282.057 24.8578C281.834 25.0869 281.708 25.3944 281.708 25.7147C281.708 26.035 281.834 26.3425 282.057 26.5716C282.281 26.8006 282.585 26.933 282.904 26.9403H299.071C299.393 26.9359 299.7 26.8048 299.926 26.5755C300.152 26.3461 300.278 26.0369 300.278 25.7147C300.278 25.3925 300.152 25.0833 299.926 24.854C299.7 24.6246 299.393 24.4935 299.071 24.4891H299.071Z" fill="#3F3D56"/>
<path d="M174.83 193.444L174.799 193.441C166.224 192.245 157.526 192.245 148.952 193.441H148.938C148.08 193.445 147.233 193.24 146.471 192.845C145.418 192.272 144.605 191.34 144.18 190.218C143.755 189.096 143.746 187.859 144.154 186.731C145.081 184.333 145.119 181.681 144.261 179.258C143.991 178.498 143.9 177.686 143.994 176.885C144.088 176.084 144.366 175.316 144.805 174.64C145.214 174.002 145.766 173.468 146.417 173.082C147.069 172.696 147.802 172.468 148.557 172.417C148.677 172.408 148.798 172.404 148.92 172.404C157.478 173.913 166.233 173.914 174.791 172.408H174.802C175.645 172.405 176.477 172.602 177.23 172.983C177.982 173.365 178.633 173.92 179.13 174.602C179.549 175.202 179.829 175.888 179.952 176.609C180.075 177.331 180.036 178.071 179.84 178.776C179.18 181.349 179.211 184.127 179.936 187.269C180.199 188.368 180.068 189.525 179.565 190.537C179.122 191.413 178.445 192.149 177.609 192.662C176.773 193.175 175.811 193.446 174.83 193.444Z" fill="#1858CD"/>
<path d="M201.198 148.599L194.3 142.882C189.128 145.597 181.257 156.439 181.257 156.439L163.099 169.52C162.405 169.553 161.732 169.768 161.148 170.144C160.564 170.521 160.089 171.044 159.772 171.663C159.454 172.281 159.305 172.973 159.338 173.667C159.372 174.362 159.588 175.036 159.965 175.62C160.341 176.205 160.864 176.68 161.482 176.997C162.1 177.315 162.791 177.463 163.484 177.429C164.178 177.394 164.85 177.177 165.433 176.799C166.016 176.421 166.49 175.897 166.806 175.277L191.477 162.219L201.198 148.599Z" fill="#FFB8B8"/>
<path d="M212.836 126.839C213.895 127.737 214.744 128.859 215.321 130.123C215.899 131.388 216.191 132.764 216.177 134.154C216.163 135.545 215.843 136.915 215.24 138.167C214.638 139.42 213.767 140.524 212.69 141.401L208.303 144.973C208.303 144.973 197.362 160.749 191.666 162.579L177.045 170.23L170.452 163.609L183.703 152.793C183.703 152.793 189.798 147.019 190.409 142.792C190.782 140.203 195.156 133.152 199.54 127.922C200.342 126.975 201.321 126.196 202.424 125.629C203.526 125.063 204.729 124.719 205.964 124.618C207.199 124.518 208.441 124.662 209.621 125.043C210.8 125.424 211.892 126.034 212.836 126.839Z" fill="#3F3D56"/>
<path d="M198.66 298.061L192.428 298.06L189.464 273.984L198.661 273.984L198.66 298.061Z" fill="#FFB6B6"/>
<path d="M198.879 304.572L179.716 304.572V304.329C179.716 302.347 180.502 300.447 181.901 299.046C183.299 297.645 185.196 296.858 187.175 296.858H187.175L190.676 294.198L197.207 296.858L198.88 296.858L198.879 304.572Z" fill="#2F2E41"/>
<path d="M246.144 265.207L243.192 270.705L220.617 261.919L224.973 253.805L246.144 265.207Z" fill="#FFB6B6"/>
<path d="M251.974 268.097L242.898 285.003L242.685 284.888C240.943 283.949 239.644 282.356 239.074 280.459C238.504 278.561 238.711 276.515 239.647 274.77L239.647 274.769L238.966 270.422L244.398 265.92L245.19 264.444L251.974 268.097Z" fill="#2F2E41"/>
<path d="M186.878 187.804L181.378 231.877L184.128 246.653L233.63 268.375L236.38 259.423C223.727 251.667 210.2 239.931 201.677 239.068C201.677 239.068 200.97 231.246 207.076 226.42C208.308 225.446 208.039 224.128 208.537 222.934C208.88 222.113 210.242 221.257 210.591 220.415C211.044 219.323 210.484 218.238 210.939 217.128C211.194 216.504 212.164 216.465 212.418 215.841C212.851 214.776 212.568 213.127 212.99 212.074C213.893 209.826 214.76 207.627 215.553 205.566C218.019 199.15 219.755 194.067 219.536 192.969C218.848 189.526 186.878 187.804 186.878 187.804Z" fill="#2F2E41"/>
<path d="M185.93 231.75L183.053 250.362L190.315 288.345H199.941C203.399 275.583 203.577 258.809 200.285 244.617L185.93 231.75Z" fill="#2F2E41"/>
<path d="M192.115 133.956L196.552 126.212L201.316 122.384L210.254 121.007L212.737 122.919C221.674 136.599 225.006 153.201 222.043 169.278L221.345 173.062L220.902 175.465L221.094 178.336L219.603 182.516L219.808 185.577L219.917 187.212L220.027 188.852L220.181 191.142C220.456 192.449 219.072 192.277 219.268 193.429C219.611 195.453 221.153 198.451 218.811 198.46L194.609 193.429C188.46 193.455 182.736 186.111 188.672 180.165L192.115 133.956Z" fill="#3F3D56"/>
<path d="M203.443 118.849C209.934 118.849 215.195 113.579 215.195 107.078C215.195 100.577 209.934 95.3065 203.443 95.3065C196.952 95.3065 191.691 100.577 191.691 107.078C191.691 113.579 196.952 118.849 203.443 118.849Z" fill="#FFB8B8"/>
<path d="M203.642 118.515C205.362 118.542 207.08 118.421 208.78 118.155C210.464 117.812 214.232 115.047 215.282 113.382C216.062 112.146 216.561 110.215 216.843 108.813C217.221 106.958 217.207 105.044 216.8 103.195C216.393 101.346 215.603 99.6025 214.481 98.0785C214.05 97.4411 213.455 96.9322 212.759 96.6058C212.697 96.5816 212.633 96.5602 212.569 96.5419C211.555 96.2745 210.643 95.7095 209.951 94.9194C209.817 94.7596 209.672 94.6097 209.516 94.4708C208.734 93.81 207.808 93.3439 206.812 93.1106C205.204 92.6797 202.877 93.1075 199.896 94.3833C198.399 95.0244 196.761 94.7924 195.501 94.5186C195.43 94.505 195.357 94.5101 195.289 94.5334C195.221 94.5568 195.16 94.5976 195.113 94.6518C194.577 95.1559 193.87 95.4381 193.135 95.4416C192.684 95.4614 192.212 96.086 191.641 96.9004C191.511 97.0853 191.36 97.3011 191.251 97.4323L191.236 97.1802L190.982 97.4615C190.581 97.9036 190.299 98.4399 190.161 99.0207C190.023 99.6014 190.035 100.208 190.194 100.783C190.353 101.358 190.655 101.884 191.071 102.311C191.488 102.737 192.006 103.052 192.576 103.224C193.029 103.345 193.493 103.419 193.961 103.446C194.245 103.471 194.538 103.498 194.819 103.546C195.721 103.731 196.56 104.147 197.253 104.754C197.947 105.361 198.471 106.137 198.776 107.007C198.848 107.208 198.965 107.39 199.118 107.539C199.272 107.687 199.457 107.799 199.66 107.864C199.863 107.93 200.079 107.947 200.29 107.916C200.501 107.885 200.702 107.806 200.877 107.684C201.17 107.456 201.514 107.302 201.879 107.235C202.244 107.169 202.62 107.192 202.974 107.302C203.28 107.472 203.518 107.743 203.649 108.069C203.808 108.432 204.071 108.739 204.404 108.951C205.546 109.541 205.624 112.152 205.214 114.328C204.819 116.426 204.038 117.944 203.315 118.019C202.758 118.077 202.695 118.117 202.654 118.215L202.618 118.303L202.681 118.386C202.988 118.498 203.316 118.542 203.642 118.515Z" fill="#2F2E41"/>
<path d="M179.853 111.573L179.822 111.571C171.247 110.374 162.549 110.374 153.975 111.571H153.961C153.103 111.574 152.256 111.369 151.494 110.974C150.441 110.402 149.628 109.47 149.203 108.348C148.778 107.226 148.769 105.988 149.177 104.86C150.104 102.462 150.142 99.8106 149.284 97.3868C149.014 96.6271 148.923 95.8152 149.017 95.0142C149.111 94.2133 149.389 93.445 149.828 92.769C150.237 92.1309 150.789 91.5975 151.441 91.2115C152.092 90.8254 152.825 90.5975 153.58 90.5458C153.7 90.5378 153.821 90.5335 153.943 90.5335C162.501 92.0422 171.256 92.0433 179.814 90.5369H179.825C180.668 90.5339 181.5 90.7312 182.253 91.1127C183.005 91.4941 183.657 92.0488 184.154 92.7313C184.572 93.3315 184.852 94.017 184.975 94.7386C185.098 95.4602 185.059 96.2 184.863 96.9051C184.203 99.4778 184.234 102.256 184.959 105.398C185.222 106.497 185.091 107.654 184.588 108.666C184.145 109.542 183.468 110.278 182.632 110.791C181.796 111.305 180.834 111.575 179.853 111.573Z" fill="#1858CD"/>
<path d="M190.843 139.297L195.706 131.768C192.409 126.939 180.739 120.377 180.739 120.377L165.647 103.843C165.533 103.157 165.241 102.513 164.8 101.976C164.359 101.439 163.784 101.028 163.133 100.784C162.483 100.54 161.78 100.472 161.095 100.587C160.41 100.702 159.768 100.996 159.232 101.438C158.696 101.881 158.287 102.457 158.044 103.109C157.802 103.76 157.735 104.465 157.85 105.151C157.966 105.836 158.259 106.48 158.702 107.016C159.145 107.552 159.72 107.961 160.371 108.203L176.202 131.219L190.843 139.297Z" fill="#FFB8B8"/>
<path d="M213.78 148.331C213.013 149.49 212 150.465 210.814 151.187C209.628 151.909 208.297 152.361 206.917 152.509C205.537 152.658 204.141 152.5 202.828 152.047C201.516 151.593 200.319 150.856 199.324 149.887L195.27 145.941C195.27 145.941 178.276 137.053 175.795 131.602L164.66 115.783L172.126 109.036L185.104 120.852C185.104 120.852 191.078 127.773 195.341 127.886C197.951 127.955 205.454 131.482 211.152 135.232C212.184 135.918 213.071 136.802 213.762 137.832C214.453 138.862 214.935 140.019 215.179 141.235C215.423 142.452 215.425 143.705 215.185 144.923C214.945 146.14 214.467 147.298 213.78 148.331Z" fill="#3F3D56"/>
<path d="M100.573 304.504L100.542 304.502C91.9675 303.305 83.2691 303.305 74.6949 304.502H74.6811C73.8227 304.505 72.9762 304.3 72.2137 303.905C71.1608 303.333 70.3481 302.401 69.923 301.279C69.498 300.157 69.4889 298.919 69.8975 297.791C70.8239 295.393 70.8619 292.742 70.0045 290.318C69.7343 289.558 69.6428 288.746 69.7371 287.945C69.8314 287.144 70.1089 286.376 70.5481 285.7C70.9569 285.062 71.5091 284.528 72.1606 284.142C72.812 283.756 73.5446 283.528 74.2998 283.477C74.4202 283.469 74.5411 283.464 74.6633 283.464C83.221 284.973 91.976 284.974 100.534 283.468H100.545C101.388 283.465 102.22 283.662 102.973 284.044C103.725 284.425 104.377 284.98 104.874 285.662C105.292 286.262 105.572 286.948 105.695 287.669C105.818 288.391 105.779 289.131 105.583 289.836C104.923 292.409 104.954 295.187 105.679 298.329C105.942 299.428 105.811 300.585 105.308 301.597C104.865 302.473 104.188 303.209 103.352 303.722C102.516 304.236 101.554 304.506 100.573 304.504Z" fill="#1858CD"/>
<path d="M107.88 285.294L107.848 285.292C99.2738 284.095 90.5754 284.095 82.0012 285.292H81.9874C81.129 285.295 80.2825 285.09 79.52 284.695C78.4672 284.123 77.6544 283.191 77.2293 282.069C76.8043 280.947 76.7952 279.709 77.2038 278.581C78.1302 276.183 78.1682 273.532 77.3108 271.108C77.0406 270.348 76.9491 269.536 77.0434 268.735C77.1377 267.934 77.4152 267.166 77.8544 266.49C78.2632 265.852 78.8154 265.319 79.4669 264.932C80.1183 264.546 80.8509 264.318 81.6061 264.267C81.7265 264.259 81.8474 264.255 81.9696 264.255C90.5273 265.763 99.2823 265.764 107.84 264.258H107.851C108.694 264.255 109.527 264.452 110.279 264.834C111.031 265.215 111.683 265.77 112.18 266.452C112.598 267.053 112.879 267.738 113.001 268.46C113.124 269.181 113.086 269.921 112.889 270.626C112.229 273.199 112.261 275.977 112.986 279.119C113.249 280.218 113.117 281.375 112.614 282.387C112.171 283.263 111.494 283.999 110.658 284.512C109.822 285.026 108.86 285.296 107.88 285.294Z" fill="#1858CD"/>
<path d="M43.9436 290.531L43.9632 290.506C49.757 284.063 54.6309 276.847 58.4457 269.063L58.4535 269.052C58.9318 268.338 59.5752 267.75 60.3291 267.339C61.3926 266.786 62.6188 266.634 63.7848 266.91C64.9508 267.186 65.9792 267.872 66.6831 268.843C68.1472 270.955 70.3184 272.472 72.8031 273.119C73.5828 273.321 74.3055 273.7 74.915 274.227C75.5245 274.754 76.0043 275.415 76.3172 276.158C76.6158 276.854 76.7475 277.611 76.7017 278.368C76.6559 279.125 76.434 279.86 76.0536 280.516C75.9927 280.62 75.9285 280.723 75.8601 280.824C69.8174 287.079 64.9108 294.341 61.3613 302.285L61.3553 302.294C60.8852 302.995 60.2558 303.575 59.5187 303.985C58.7817 304.396 57.9579 304.626 57.1151 304.656C56.3844 304.666 55.6603 304.515 54.9949 304.212C54.3294 303.91 53.7391 303.463 53.2661 302.905C51.5083 300.916 49.1936 299.386 46.189 298.227C45.1326 297.829 44.2496 297.072 43.6947 296.087C43.2182 295.229 42.9891 294.255 43.033 293.274C43.077 292.293 43.3922 291.343 43.9436 290.531Z" fill="#1858CD"/>
<path d="M342.456 305.201L0.543719 305.342C0.399788 305.342 0.261898 305.284 0.160271 305.182C0.0586442 305.08 0.00157166 304.942 0.00157166 304.797C0.00157166 304.653 0.0586442 304.515 0.160271 304.413C0.261898 304.311 0.399788 304.253 0.543719 304.253L342.456 304.112C342.6 304.113 342.738 304.17 342.84 304.272C342.941 304.374 342.998 304.513 342.998 304.657C342.998 304.801 342.941 304.939 342.84 305.041C342.738 305.143 342.6 305.201 342.456 305.201Z" fill="#CACACA"/>
</g>
<defs>
<clipPath id="clip0_96_65">
<rect width="343" height="306" fill="white"/>
</clipPath>
</defs>
</svg>
