<svg width="346" height="241" viewBox="0 0 346 241" fill="none" xmlns="http://www.w3.org/2000/svg">
<g clipPath="url(#clip0_96_105)">
<path d="M329.896 46.8805H16.1044C11.8347 46.8756 7.7413 45.1762 4.72219 42.1551C1.70308 39.134 0.00482243 35.0378 0 30.7653V16.1152C0.00482243 11.8426 1.70308 7.74649 4.72219 4.72535C7.7413 1.70422 11.8347 0.00482709 16.1044 0H329.896C334.165 0.00482566 338.259 1.70421 341.278 4.72535C344.297 7.74648 345.995 11.8426 346 16.1152V30.7653C345.995 35.0378 344.297 39.134 341.278 42.1551C338.259 45.1762 334.165 46.8756 329.896 46.8805ZM16.1044 0.976671C12.0935 0.981221 8.24816 2.57763 5.41203 5.41566C2.5759 8.25369 0.980563 12.1016 0.976017 16.1152V30.7653C0.980563 34.7789 2.5759 38.6268 5.41203 41.4648C8.24816 44.3028 12.0935 45.8992 16.1044 45.9038H329.896C333.906 45.8992 337.752 44.3028 340.588 41.4648C343.424 38.6268 345.019 34.7789 345.024 30.7653V16.1152C345.019 12.1016 343.424 8.25369 340.588 5.41566C337.752 2.57763 333.906 0.981221 329.896 0.976671H16.1044Z" fill="#3F3D56"/>
<path d="M248.398 14.1618H40.0169C34.896 14.1618 30.7447 18.3159 30.7447 23.4402V23.4402C30.7447 28.5646 34.896 32.7186 40.0169 32.7186H248.398C253.519 32.7186 257.67 28.5646 257.67 23.4402C257.67 18.3159 253.519 14.1618 248.398 14.1618Z" fill="#E6E6E6"/>
<path d="M275.726 95.5396H67.3456C62.2247 95.5396 58.0734 99.6937 58.0734 104.818V104.818C58.0734 109.942 62.2247 114.096 67.3456 114.096H275.726C280.847 114.096 284.999 109.942 284.999 104.818C284.999 99.6937 280.847 95.5396 275.726 95.5396Z" fill="#1858CD"/>
<path d="M275.726 154.541H67.3456C62.2247 154.541 58.0734 158.695 58.0734 163.82V163.82C58.0734 168.944 62.2247 173.098 67.3456 173.098H275.726C280.847 173.098 284.999 168.944 284.999 163.82C284.999 158.695 280.847 154.541 275.726 154.541Z" fill="#E6E6E6"/>
<path d="M275.726 213.543H67.3456C62.2247 213.543 58.0734 217.697 58.0734 222.821V222.821C58.0734 227.945 62.2247 232.1 67.3456 232.1H275.726C280.847 232.1 284.999 227.945 284.999 222.821C284.999 217.697 280.847 213.543 275.726 213.543Z" fill="#E6E6E6"/>
<path d="M315.496 33.4641C315.274 33.7815 314.935 33.9977 314.554 34.065C314.172 34.1323 313.78 34.0453 313.462 33.823L305.495 28.2753C305.177 28.053 304.961 27.7137 304.894 27.332C304.827 26.9503 304.914 26.5575 305.136 26.24C305.358 25.9225 305.697 25.7063 306.079 25.639C306.46 25.5717 306.853 25.6588 307.17 25.8811L315.138 31.4287C315.455 31.651 315.671 31.9904 315.738 32.3721C315.805 32.7538 315.718 33.1466 315.496 33.4641Z" fill="#1858CD"/>
<path d="M306.451 27.1611C305.275 28.8419 303.627 30.136 301.716 30.8797C299.805 31.6234 297.716 31.7833 295.714 31.3392C293.712 30.8951 291.887 29.867 290.469 28.3848C289.051 26.9026 288.104 25.033 287.748 23.0123C287.392 20.9916 287.643 18.9106 288.469 17.0325C289.294 15.1544 290.658 13.5635 292.388 12.4611C294.117 11.3586 296.134 10.794 298.184 10.8387C300.234 10.8835 302.225 11.5355 303.905 12.7124C306.154 14.2926 307.686 16.7012 308.163 19.4099C308.641 22.1186 308.025 24.9062 306.451 27.1611ZM291.589 16.7479C290.707 18.0085 290.218 19.5025 290.184 21.041C290.151 22.5796 290.574 24.0935 291.4 25.3914C292.227 26.6892 293.419 27.7128 294.827 28.3325C296.234 28.9523 297.794 29.1405 299.308 28.8732C300.823 28.606 302.224 27.8953 303.335 26.8312C304.446 25.767 305.217 24.3971 305.549 22.8947C305.882 21.3922 305.762 19.8248 305.205 18.3905C304.648 16.9563 303.678 15.7196 302.418 14.837C300.728 13.6557 298.639 13.1934 296.609 13.5517C294.578 13.9099 292.773 15.0594 291.589 16.7479Z" fill="#1858CD"/>
<path d="M320.867 122.948H25.1326C25.0032 122.948 24.879 122.897 24.7875 122.805C24.696 122.714 24.6446 122.59 24.6446 122.46C24.6446 122.331 24.696 122.206 24.7875 122.115C24.879 122.023 25.0032 121.972 25.1326 121.972H320.867C320.997 121.972 321.121 122.023 321.213 122.115C321.304 122.206 321.355 122.331 321.355 122.46C321.355 122.59 321.304 122.714 321.213 122.805C321.121 122.897 320.997 122.948 320.867 122.948Z" fill="#3F3D56"/>
<path d="M320.867 181.974H25.1326C25.0032 181.974 24.879 181.923 24.7875 181.831C24.696 181.74 24.6446 181.616 24.6446 181.486C24.6446 181.357 24.696 181.232 24.7875 181.141C24.879 181.049 25.0032 180.998 25.1326 180.998H320.867C320.997 180.998 321.121 181.049 321.213 181.141C321.304 181.232 321.355 181.357 321.355 181.486C321.355 181.616 321.304 181.74 321.213 181.831C321.121 181.923 320.997 181.974 320.867 181.974Z" fill="#3F3D56"/>
<path d="M320.867 241H25.1326C25.0032 241 24.879 240.949 24.7875 240.857C24.696 240.765 24.6446 240.641 24.6446 240.512C24.6446 240.382 24.696 240.258 24.7875 240.166C24.879 240.075 25.0032 240.023 25.1326 240.023H320.867C320.997 240.023 321.121 240.075 321.213 240.166C321.304 240.258 321.355 240.382 321.355 240.512C321.355 240.641 321.304 240.765 321.213 240.857C321.121 240.949 320.997 241 320.867 241Z" fill="#3F3D56"/>
</g>
<defs>
<clipPath id="clip0_96_105">
<rect width="346" height="241" fill="white"/>
</clipPath>
</defs>
</svg>
