<svg width="411" height="298" viewBox="0 0 411 298" fill="none" xmlns="http://www.w3.org/2000/svg">
<g clip-path="url(#clip0_105_737)">
<path d="M222.409 55.4964C222.307 67.0445 221.461 78.5741 219.876 90.0134C219.82 90.4151 219.76 90.8168 219.704 91.2185L111.525 90.6142C111.207 90.2152 110.895 89.8115 110.592 89.4029C109.582 88.0507 108.635 86.6601 107.766 85.2215C103.59 78.291 101.677 70.1767 103.594 64.5783L103.628 64.4913C104.041 63.2654 104.693 62.1332 105.546 61.1598C109.914 56.2436 118.748 57.0631 126.763 61.0313C119.574 53.1636 113.849 43.2358 113.414 34.3742C112.987 25.7305 117.508 19.5558 122.412 14.3083C122.573 14.1348 122.734 13.9662 122.895 13.7976C122.973 13.7108 123.055 13.6289 123.133 13.5421C126.959 9.5432 131.419 5.60107 137.875 6.07794C144.956 6.60187 152.806 12.5309 158.31 19.4398C163.815 26.3438 167.472 34.1869 171.18 41.8414C174.892 49.491 178.908 57.3362 184.865 63.8746C176.797 53.6722 170.292 42.0641 167.889 30.7744C165.486 19.4847 167.601 8.64164 174.791 3.32459C176.974 1.76016 179.5 0.741183 182.158 0.352936C182.468 0.301394 182.784 0.259555 183.104 0.222583C189.76 -0.534587 197.708 1.76699 204.47 7.26851C211.917 13.3261 217.08 22.3062 219.649 30.831C222.218 39.3559 222.492 47.5627 222.409 55.4964Z" fill="#F2F2F2"/>
<path d="M151.632 90.8383L149.563 90.8267C148.906 90.4162 148.246 90.0105 147.583 89.6096C147.173 89.3506 146.758 89.1012 146.342 88.847C139.481 84.6576 132.576 80.639 125.629 76.7914C118.688 72.9406 111.712 69.2672 104.701 65.7712C104.515 65.6903 104.364 65.5469 104.273 65.3659C104.182 65.1849 104.157 64.9777 104.203 64.7803C104.21 64.7545 104.222 64.73 104.237 64.7079C104.335 64.5243 104.554 64.448 104.873 64.6048C105.732 65.0359 106.597 65.467 107.457 65.9077C114.487 69.4635 121.487 73.1968 128.457 77.1075C135.421 81.0166 142.347 85.0982 149.232 89.3524C149.377 89.4404 149.522 89.5332 149.666 89.6212C150.323 90.0269 150.975 90.4326 151.632 90.8383Z" fill="white"/>
<path d="M178.304 90.9872L177.024 90.9801C176.736 90.5765 176.452 90.1729 176.164 89.7692C169.386 80.2666 162.609 70.764 155.833 61.2615C144.737 45.7043 133.645 30.1472 122.556 14.59C122.49 14.5063 122.441 14.4106 122.412 14.3083C122.317 13.9638 122.57 13.7618 122.895 13.7975C123.031 13.8171 123.162 13.8655 123.279 13.9397C123.396 14.0138 123.495 14.112 123.571 14.2275C129.791 22.952 136.011 31.6732 142.228 40.3912C153.266 55.8706 164.303 71.3483 175.337 86.8244C176.039 87.8068 176.741 88.7939 177.443 89.7763C177.732 90.18 178.02 90.5836 178.304 90.9872Z" fill="white"/>
<path d="M206.8 83.5611C206.735 85.7162 206.592 87.837 206.406 89.9381C206.37 90.34 206.334 90.7418 206.298 91.1436L204.956 91.1361C204.997 90.7343 205.038 90.3325 205.074 89.9307C205.357 86.8952 205.559 83.8254 205.586 80.6723C205.622 71.9303 204.769 63.2073 203.042 54.6374C201.207 45.41 198.571 36.3598 195.165 27.5894C191.59 18.3394 187.28 9.39043 182.277 0.828275C182.182 0.688725 182.14 0.520382 182.158 0.35293C182.213 -0.0294351 182.723 -0.14283 183.103 0.222577C183.179 0.294268 183.243 0.376149 183.296 0.465833C183.915 1.53008 184.523 2.59749 185.119 3.66807C189.939 12.2777 194.064 21.2578 197.455 30.523C200.686 39.3221 203.143 48.3859 204.799 57.6116C206.35 66.1705 207.021 74.8656 206.8 83.5611Z" fill="white"/>
<path d="M298.321 90.3221H4.22477C3.10458 90.3231 2.03056 90.7684 1.23848 91.5603C0.446401 92.3522 0.000982693 93.4259 0 94.5458V293.776C0.000982693 294.896 0.446401 295.97 1.23848 296.762C2.03056 297.554 3.10458 297.999 4.22477 298H298.321C298.932 298 299.535 297.868 300.09 297.612C300.645 297.356 301.137 296.983 301.533 296.518C301.567 296.481 301.598 296.443 301.625 296.402C301.878 296.093 302.082 295.749 302.231 295.38C302.444 294.872 302.552 294.327 302.551 293.776V94.5458C302.549 93.4251 302.103 92.3508 301.31 91.5588C300.517 90.7669 299.442 90.322 298.321 90.3221ZM301.344 293.776C301.345 294.366 301.171 294.942 300.845 295.433C300.556 295.865 300.163 296.218 299.702 296.46C299.275 296.68 298.801 296.795 298.321 296.794H4.22477C3.42452 296.793 2.65732 296.475 2.09146 295.909C1.52559 295.343 1.20726 294.576 1.20629 293.776V94.5458C1.20726 93.7458 1.52559 92.9788 2.09146 92.4131C2.65732 91.8474 3.42452 91.5292 4.22477 91.5282H298.321C299.122 91.5281 299.89 91.8458 300.457 92.4116C301.024 92.9774 301.343 93.745 301.344 94.5458V293.776Z" fill="#3F3D56"/>
<path d="M301.945 107.25H0.602051V108.458H301.945V107.25Z" fill="#3F3D56"/>
<path d="M10.8682 103C12.8694 103 14.4916 101.378 14.4916 99.3779C14.4916 97.3774 12.8694 95.7556 10.8682 95.7556C8.86711 95.7556 7.24487 97.3774 7.24487 99.3779C7.24487 101.378 8.86711 103 10.8682 103Z" fill="#3F3D56"/>
<path d="M21.2855 103C23.2866 103 24.9088 101.378 24.9088 99.3779C24.9088 97.3774 23.2866 95.7556 21.2855 95.7556C19.2843 95.7556 17.6621 97.3774 17.6621 99.3779C17.6621 101.378 19.2843 103 21.2855 103Z" fill="#3F3D56"/>
<path d="M31.7025 103C33.7036 103 35.3258 101.378 35.3258 99.3779C35.3258 97.3774 33.7036 95.7556 31.7025 95.7556C29.7013 95.7556 28.0791 97.3774 28.0791 99.3779C28.0791 101.378 29.7013 103 31.7025 103Z" fill="#3F3D56"/>
<path d="M226.904 135.2H75.7378C74.0673 135.2 72.4652 134.536 71.284 133.355C70.1028 132.175 69.4392 130.573 69.4392 128.903C69.4392 127.233 70.1028 125.631 71.284 124.45C72.4652 123.27 74.0673 122.606 75.7378 122.606H226.904C228.575 122.606 230.177 123.27 231.358 124.45C232.539 125.631 233.203 127.233 233.203 128.903C233.203 130.573 232.539 132.175 231.358 133.355C230.177 134.536 228.575 135.2 226.904 135.2ZM75.7378 123.575C74.3243 123.575 72.9687 124.136 71.9692 125.135C70.9697 126.135 70.4082 127.49 70.4082 128.903C70.4082 130.316 70.9697 131.671 71.9692 132.67C72.9687 133.67 74.3243 134.231 75.7378 134.231H226.904C228.318 134.231 229.673 133.67 230.673 132.67C231.672 131.671 232.234 130.316 232.234 128.903C232.234 127.49 231.672 126.135 230.673 125.135C229.673 124.136 228.318 123.575 226.904 123.575H75.7378Z" fill="#3F3D56"/>
<path d="M88.2894 209.123H30.1485C27.9648 209.121 25.8712 208.252 24.327 206.709C22.7829 205.165 21.9143 203.072 21.9119 200.889V173.764C21.9143 171.581 22.7829 169.488 24.327 167.944C25.8712 166.401 27.9648 165.532 30.1485 165.53H88.2894C90.4731 165.532 92.5667 166.401 94.1109 167.944C95.655 169.488 96.5236 171.581 96.526 173.764V200.889C96.5236 203.072 95.655 205.165 94.1109 206.709C92.5667 208.252 90.4731 209.121 88.2894 209.123Z" fill="#1858CD"/>
<path d="M180.346 209.123H122.205C120.021 209.121 117.928 208.252 116.383 206.709C114.839 205.165 113.971 203.072 113.968 200.889V173.764C113.971 171.581 114.839 169.488 116.383 167.944C117.928 166.401 120.021 165.532 122.205 165.53H180.346C182.53 165.532 184.623 166.401 186.167 167.944C187.711 169.488 188.58 171.581 188.582 173.764V200.889C188.58 203.072 187.711 205.165 186.167 206.709C184.623 208.252 182.53 209.121 180.346 209.123Z" fill="#1858CD"/>
<path d="M272.402 209.123H214.261C212.078 209.121 209.984 208.252 208.44 206.709C206.896 205.165 206.027 203.072 206.025 200.889V173.764C206.027 171.581 206.896 169.488 208.44 167.944C209.984 166.401 212.078 165.532 214.261 165.53H272.402C274.586 165.532 276.679 166.401 278.224 167.944C279.768 169.488 280.636 171.581 280.639 173.764V200.889C280.636 203.072 279.768 205.165 278.224 206.709C276.679 208.252 274.586 209.121 272.402 209.123Z" fill="#1858CD"/>
<path d="M88.2894 266.279H30.1485C27.9648 266.276 25.8712 265.408 24.327 263.864C22.7829 262.32 21.9143 260.227 21.9119 258.044V230.92C21.9143 228.737 22.7829 226.644 24.327 225.1C25.8712 223.556 27.9648 222.688 30.1485 222.685H88.2894C90.4731 222.688 92.5667 223.556 94.1109 225.1C95.655 226.644 96.5236 228.737 96.526 230.92V258.044C96.5236 260.227 95.655 262.32 94.1109 263.864C92.5667 265.408 90.4731 266.276 88.2894 266.279Z" fill="#1858CD"/>
<path d="M180.346 266.279H122.205C120.021 266.276 117.928 265.408 116.383 263.864C114.839 262.32 113.971 260.227 113.968 258.044V230.92C113.971 228.737 114.839 226.644 116.383 225.1C117.928 223.556 120.021 222.688 122.205 222.685H180.346C182.53 222.688 184.623 223.556 186.167 225.1C187.711 226.644 188.58 228.737 188.582 230.92V258.044C188.58 260.227 187.711 262.32 186.167 263.864C184.623 265.408 182.53 266.276 180.346 266.279Z" fill="#1858CD"/>
<path d="M272.402 266.279H214.261C212.078 266.276 209.984 265.408 208.44 263.864C206.896 262.32 206.027 260.227 206.025 258.044V230.92C206.027 228.737 206.896 226.644 208.44 225.1C209.984 223.556 212.078 222.688 214.261 222.685H272.402C274.586 222.688 276.679 223.556 278.224 225.1C279.768 226.644 280.636 228.737 280.639 230.92V258.044C280.636 260.227 279.768 262.32 278.224 263.864C276.679 265.408 274.586 266.276 272.402 266.279Z" fill="#1858CD"/>
<path d="M337.757 136.468C346.588 136.468 353.746 129.311 353.746 120.484C353.746 111.656 346.588 104.499 337.757 104.499C328.927 104.499 321.769 111.656 321.769 120.484C321.769 129.311 328.927 136.468 337.757 136.468Z" fill="#2F2E41"/>
<path d="M297.702 203.635C297.348 202.961 297.146 202.219 297.11 201.459C297.074 200.699 297.204 199.941 297.493 199.237C297.782 198.533 298.222 197.901 298.781 197.386C299.341 196.87 300.007 196.483 300.732 196.253L320.992 153.406L330.26 159.903L307.43 199.977C307.737 201.221 307.576 202.533 306.98 203.667C306.383 204.8 305.391 205.675 304.191 206.126C302.992 206.576 301.669 206.572 300.473 206.113C299.277 205.654 298.291 204.772 297.702 203.635Z" fill="#FFB8B8"/>
<path d="M315.063 159.095C314.967 158.774 314.941 158.436 314.987 158.104C315.033 157.771 315.15 157.453 315.331 157.171L321.63 147.298C322.33 145.732 323.623 144.508 325.225 143.893C326.827 143.279 328.607 143.324 330.175 144.02C331.744 144.715 332.972 146.004 333.592 147.604C334.211 149.204 334.17 150.984 333.479 152.554L330.306 163.865C330.215 164.188 330.056 164.487 329.839 164.743C329.623 164.999 329.353 165.205 329.05 165.347C328.746 165.49 328.415 165.565 328.08 165.568C327.744 165.571 327.412 165.502 327.106 165.365L316.346 160.555C316.04 160.418 315.766 160.217 315.545 159.965C315.324 159.713 315.159 159.416 315.063 159.095Z" fill="#1858CD"/>
<path d="M366.041 207.883C365.299 207.711 364.605 207.378 364.006 206.909C363.407 206.439 362.919 205.844 362.575 205.166C362.231 204.487 362.04 203.741 362.016 202.981C361.991 202.221 362.134 201.464 362.434 200.765L343.246 157.428L354.222 154.664L369.632 198.132C370.773 198.713 371.662 199.693 372.13 200.885C372.597 202.078 372.611 203.4 372.168 204.602C371.726 205.804 370.857 206.802 369.728 207.406C368.599 208.011 367.287 208.18 366.041 207.883V207.883Z" fill="#FFB8B8"/>
<path d="M371.271 286.435L365.689 288.467L355.195 267.912L363.432 264.913L371.271 286.435Z" fill="#FFB8B8"/>
<path d="M361.122 288.324L371.887 284.406L374.354 291.182L356.812 297.567C356.488 296.677 356.343 295.732 356.384 294.786C356.425 293.84 356.652 292.911 357.053 292.053C357.453 291.195 358.018 290.424 358.716 289.784C359.415 289.144 360.232 288.648 361.122 288.324Z" fill="#2F2E41"/>
<path d="M356.034 273.433L334.77 236.233C334.565 235.873 334.459 235.465 334.463 235.05C334.468 234.636 334.582 234.23 334.795 233.875L344.37 217.921C344.597 217.543 344.927 217.236 345.321 217.038C345.716 216.839 346.158 216.756 346.597 216.799C347.037 216.842 347.455 217.008 347.803 217.279C348.152 217.55 348.417 217.914 348.567 218.329L366.67 268.445C366.869 268.991 366.857 269.591 366.635 270.128C366.414 270.665 365.999 271.1 365.474 271.347L359.059 274.384C358.749 274.531 358.411 274.606 358.069 274.606C357.656 274.607 357.251 274.499 356.894 274.293C356.536 274.087 356.24 273.79 356.034 273.433Z" fill="#2F2E41"/>
<path d="M336.302 137.948C342.874 137.948 348.202 132.622 348.202 126.052C348.202 119.481 342.874 114.155 336.302 114.155C329.73 114.155 324.402 119.481 324.402 126.052C324.402 132.622 329.73 137.948 336.302 137.948Z" fill="#FFB8B8"/>
<path d="M319.375 179.938C310.004 159.164 319.452 147.554 323.949 143.527C325.244 142.365 326.923 141.723 328.663 141.724H345.427C346.63 141.724 347.814 142.032 348.866 142.618C349.917 143.204 350.801 144.049 351.434 145.073C352.067 146.096 352.428 147.265 352.482 148.467C352.536 149.669 352.282 150.865 351.743 151.942L340.537 174.348L319.467 180.141L319.375 179.938Z" fill="#1858CD"/>
<path d="M343.9 165.194C343.594 165.057 343.321 164.856 343.1 164.604C342.879 164.352 342.714 164.055 342.618 163.734L339.264 152.515C338.537 150.961 338.456 149.183 339.038 147.57C339.62 145.958 340.818 144.641 342.37 143.91C343.921 143.178 345.699 143.091 347.315 143.668C348.93 144.245 350.251 145.438 350.988 146.986L357.475 156.782C357.661 157.061 357.783 157.377 357.835 157.709C357.887 158.04 357.867 158.378 357.776 158.701C357.685 159.024 357.526 159.323 357.309 159.579C357.092 159.835 356.823 160.041 356.519 160.183L345.844 165.178C345.54 165.321 345.209 165.396 344.874 165.398C344.538 165.401 344.206 165.332 343.9 165.194Z" fill="#1858CD"/>
<path d="M332.928 292.053L326.988 292.052L324.162 269.147L332.929 269.148L332.928 292.053Z" fill="#FFB8B8"/>
<path d="M322.745 290.355H334.201V297.566H315.532C315.532 296.619 315.719 295.682 316.081 294.807C316.444 293.932 316.975 293.137 317.645 292.467C318.315 291.798 319.11 291.267 319.985 290.904C320.86 290.542 321.798 290.355 322.745 290.355Z" fill="#2F2E41"/>
<path d="M330.411 283.308L320.901 282.212C320.593 282.176 320.295 282.08 320.025 281.928C319.755 281.776 319.518 281.572 319.327 281.328C319.137 281.083 318.997 280.804 318.916 280.505C318.835 280.206 318.814 279.894 318.855 279.587L327.343 215.698C327.372 215.476 327.36 215.25 327.307 215.032L318.776 179.845C318.695 179.52 318.686 179.182 318.749 178.854C318.812 178.525 318.946 178.214 319.141 177.943C320.464 176.12 324.997 171.871 338.48 171.79H338.495C338.944 171.79 339.383 171.919 339.761 172.162C340.139 172.405 340.439 172.751 340.625 173.159L342.424 177.115C342.558 177.408 342.767 177.661 343.031 177.847C345.506 179.599 357.499 189.432 350.457 211.021C343.536 232.24 334.668 273.434 332.961 281.477C332.852 281.999 332.566 282.469 332.152 282.805C331.737 283.142 331.219 283.325 330.685 283.324C330.593 283.324 330.502 283.319 330.411 283.308Z" fill="#2F2E41"/>
<path d="M348.806 118.569C346.087 120.442 342.859 121.44 339.556 121.426C340.734 122.243 342.076 122.795 343.487 123.043C339.096 123.985 334.558 124.01 330.157 123.118C329.178 122.961 328.234 122.637 327.366 122.16C326.933 121.918 326.556 121.588 326.26 121.192C325.963 120.795 325.753 120.34 325.644 119.857C325.351 118.187 326.653 116.669 328.006 115.646C330.078 114.104 332.466 113.042 334.999 112.536C337.531 112.03 340.145 112.093 342.65 112.721C344.286 113.144 345.925 113.858 346.987 115.171C348.05 116.484 348.364 118.509 347.352 119.861L348.806 118.569Z" fill="#2F2E41"/>
<path d="M340.861 110.293C339.501 109.841 338.102 109.366 337.025 108.422C335.948 107.478 335.264 105.933 335.749 104.585C336.215 103.286 337.636 102.527 339.013 102.425C340.39 102.323 341.745 102.749 343.059 103.17C342.465 102.272 341.85 100.53 341.313 98.6939C340.086 94.5033 345.199 90.6763 349.555 90.9922C349.683 91.0015 349.807 91.0148 349.927 91.0322C354.32 91.6729 356.599 93.348 359.666 96.5555C363.504 100.568 365.511 105.982 366.855 111.368C368.199 116.755 368.989 122.298 370.879 127.518C372.769 132.738 375.958 137.755 380.834 140.412C383.504 141.819 386.51 142.466 389.523 142.28C392.536 142.094 395.44 141.084 397.917 139.36C398.255 141.652 398.047 143.992 397.311 146.189C396.575 148.386 395.331 150.379 393.681 152.006C392.031 153.633 390.02 154.848 387.812 155.553C385.604 156.258 383.261 156.432 380.973 156.063C374.679 155.047 369.636 149.978 366.943 144.2C364.249 138.422 363.514 131.955 362.838 125.616C362.162 119.278 361.478 112.813 358.872 106.995C357.818 104.64 356.265 102.244 353.491 101.868C352.766 101.75 352.023 101.873 351.376 102.22C350.729 102.567 350.215 103.117 349.912 103.785C348.692 106.737 352.866 109.236 351.796 112.049C351.565 112.594 351.182 113.06 350.693 113.394C350.204 113.728 349.63 113.914 349.038 113.932C347.021 114.065 345.364 112.909 343.803 111.793C340.609 109.51 340.861 110.293 340.861 110.293Z" fill="#2F2E41"/>
<path d="M410.515 298H299.079C298.95 298 298.827 297.949 298.736 297.858C298.645 297.767 298.594 297.644 298.594 297.516C298.594 297.387 298.645 297.264 298.736 297.173C298.827 297.082 298.95 297.031 299.079 297.031H410.515C410.644 297.031 410.767 297.082 410.858 297.173C410.949 297.264 411 297.387 411 297.516C411 297.644 410.949 297.767 410.858 297.858C410.767 297.949 410.644 298 410.515 298Z" fill="#3F3D56"/>
</g>
<defs>
<clipPath id="clip0_105_737">
<rect width="411" height="298" fill="white"/>
</clipPath>
</defs>
</svg>
